<svg id="Layer_1" data-name="Layer 1" xmlns="http://www.w3.org/2000/svg" xmlns:xlink="http://www.w3.org/1999/xlink" viewBox="0 0 1920.27 950"><defs><style>.cls-1{fill:url(#linear-gradient);}.cls-2{fill:#1d4b8c;}.cls-3{fill:none;}.cls-4{fill:#3c77aa;}.cls-5{fill:url(#linear-gradient-2);}.cls-6{fill:url(#linear-gradient-3);}.cls-7{fill:url(#linear-gradient-4);}.cls-8{fill:url(#linear-gradient-5);}</style><linearGradient id="linear-gradient" x1="0.51" y1="978.97" x2="0.48" y2="976.9" gradientTransform="matrix(1920, 0, 0, -950, 0, 930023)" gradientUnits="userSpaceOnUse"><stop offset="0" stop-color="#1a4789"/><stop offset="1" stop-color="#6dbbd9"/></linearGradient><linearGradient id="linear-gradient-2" x1="0.5" y1="978.71" x2="0.5" y2="977.71" gradientTransform="matrix(93.15, 0, 0, -93.15, 151.64, 91584.45)" gradientUnits="userSpaceOnUse"><stop offset="0" stop-color="#2a5e99"/><stop offset="1" stop-color="#336aa1"/></linearGradient><linearGradient id="linear-gradient-3" x1="0.5" y1="977.84" x2="0.5" y2="976.84" gradientTransform="matrix(23.29, 0, 0, -23.29, 186.57, 23222.52)" xlink:href="#linear-gradient-2"/><linearGradient id="linear-gradient-4" x1="0.51" y1="978.39" x2="0.45" y2="977.25" gradientTransform="matrix(110.45, 0, 0, -110.45, 73.64, 108894.18)" gradientUnits="userSpaceOnUse"><stop offset="0" stop-color="#3870a6"/><stop offset="1" stop-color="#3780b8"/></linearGradient><linearGradient id="linear-gradient-5" x1="0.51" y1="977.88" x2="0.45" y2="976.74" gradientTransform="matrix(35.63, 0, 0, -35.63, 111.04, 35686.73)" xlink:href="#linear-gradient-4"/></defs><path id="Path_1" data-name="Path 1" class="cls-1" d="M0,0H1920V795.68L0,950Z"/><path class="cls-2" d="M234.15,0a103,103,0,1,0,197.7,0Z"/><path class="cls-3" d="M1750,44a73,73,0,1,0,131.2-44H1764.69A72.66,72.66,0,0,0,1750,44Zm73-24.34A24.33,24.33,0,1,1,1798.62,44,24.34,24.34,0,0,1,1823,19.62Z"/><path class="cls-3" d="M198.21,427.28a34.93,34.93,0,1,0,34.94,34.93A34.93,34.93,0,0,0,198.21,427.28Zm0,46.58a11.65,11.65,0,1,1,11.65-11.65A11.65,11.65,0,0,1,198.21,473.86Z"/><path class="cls-3" d="M1233,678a73,73,0,1,0,73,73A73,73,0,0,0,1233,678Zm0,97.31A24.33,24.33,0,1,1,1257.29,751,24.33,24.33,0,0,1,1233,775.28Z"/><path class="cls-3" d="M128.86,804.44a41.42,41.42,0,1,0,41.42,41.42A41.43,41.43,0,0,0,128.86,804.44Zm0,59.24a17.82,17.82,0,1,1,17.82-17.82A17.82,17.82,0,0,1,128.86,863.68Z"/><path class="cls-4" d="M1233,653.64A97.32,97.32,0,1,0,1330.27,751,97.32,97.32,0,0,0,1233,653.64Zm0,170.3a73,73,0,1,1,73-73A73,73,0,0,1,1233,823.94Z"/><path class="cls-4" d="M1233,726.62A24.33,24.33,0,1,0,1257.29,751,24.34,24.34,0,0,0,1233,726.62Z"/><path class="cls-2" d="M1909.8,0h-28.63a73,73,0,1,1-116.48,0h-28.58A97.32,97.32,0,1,0,1909.8,0Z"/><path class="cls-2" d="M1823,68.28A24.33,24.33,0,1,0,1798.62,44,24.38,24.38,0,0,0,1823,68.28Z"/><path class="cls-5" d="M198.21,415.64a46.58,46.58,0,1,0,46.58,46.57A46.57,46.57,0,0,0,198.21,415.64Zm0,81.5a34.93,34.93,0,1,1,34.94-34.93A34.93,34.93,0,0,1,198.21,497.14Z"/><path class="cls-6" d="M198.21,450.57a11.65,11.65,0,1,0,11.65,11.64A11.64,11.64,0,0,0,198.21,450.57Z"/><path class="cls-7" d="M128.86,790.64a55.23,55.23,0,1,0,55.23,55.22A55.22,55.22,0,0,0,128.86,790.64Zm0,96.64a41.42,41.42,0,1,1,41.42-41.42A41.42,41.42,0,0,1,128.86,887.28Z"/><path class="cls-8" d="M128.86,828a17.82,17.82,0,1,0,17.82,17.82A17.82,17.82,0,0,0,128.86,828Z"/></svg>